<?xml version="1.0" standalone="no"?>
<!DOCTYPE svg PUBLIC "-//W3C//DTD SVG 20010904//EN"
 "http://www.w3.org/TR/2001/REC-SVG-20010904/DTD/svg10.dtd">
<svg version="1.0" xmlns="http://www.w3.org/2000/svg"
 viewBox="0 0 887.962195 942.101563"
 preserveAspectRatio="xMidYMid meet">
<metadata>
Created by potrace 1.12, written by Peter Selinger 2001-2015
</metadata>
<g transform="translate(-68.054797,978.101563) scale(0.100000,-0.100000)"
fill="currentColor" stroke="none">
<path d="M5092 9708 c-58 -102 -90 -186 -118 -308 -28 -122 -44 -327 -35 -452
3 -49 3 -88 -2 -88 -4 0 -33 13 -65 29 -275 139 -545 142 -819 12 -160 -77
-256 -151 -364 -282 -68 -83 -148 -239 -174 -339 -22 -85 -31 -307 -16 -396
32 -190 75 -220 100 -69 68 409 381 687 771 686 188 0 308 -49 436 -176 93
-92 145 -184 169 -300 28 -133 15 -236 -46 -362 -71 -149 -188 -238 -346 -265
-111 -18 -221 9 -300 76 -75 63 -111 197 -78 286 31 84 31 90 -2 90 -92 0
-262 -139 -324 -265 -29 -59 -34 -80 -37 -160 -9 -199 74 -343 258 -451 159
-94 349 -126 508 -86 86 22 183 66 239 108 17 13 34 24 36 24 2 0 -5 -35 -15
-77 -28 -109 -30 -326 -4 -443 36 -167 111 -344 204 -484 l46 -68 26 30 c75
92 174 303 217 462 24 93 27 122 27 250 0 115 -5 160 -21 218 -11 39 -19 72
-17 72 3 0 26 -11 52 -24 145 -72 330 -102 478 -75 193 34 328 113 431 253 62
84 87 171 81 289 -5 105 -30 169 -98 255 -64 80 -182 162 -235 162 -29 0 -31
-10 -9 -74 41 -119 -28 -274 -149 -334 -135 -67 -303 -40 -439 72 -127 105
-190 238 -189 401 0 173 52 296 175 421 123 123 254 177 431 177 113 0 187
-15 295 -60 113 -48 181 -93 261 -174 111 -111 184 -261 209 -424 18 -125 23
-140 45 -140 23 0 48 60 71 169 20 94 19 292 -1 391 -77 375 -371 655 -765
729 -195 37 -391 3 -572 -98 l-76 -43 -4 211 c-5 227 -22 336 -71 467 -28 75
-88 194 -115 227 l-18 23 -42 -73z"/>
<path d="M2940 8661 c-19 -10 -48 -35 -64 -55 -26 -31 -31 -47 -34 -104 -4
-79 14 -119 72 -166 29 -24 49 -31 96 -34 76 -6 136 22 176 80 25 35 29 51 29
108 0 57 -4 73 -29 108 -52 76 -167 105 -246 63z"/>
<path d="M7135 8666 c-40 -20 -56 -34 -85 -76 -21 -29 -25 -47 -25 -101 0 -56
4 -72 29 -107 65 -94 203 -110 290 -33 55 48 74 164 37 231 -10 19 -35 48 -55
64 -30 25 -47 31 -99 33 -40 2 -73 -2 -92 -11z"/>
<path d="M2620 7994 c-14 -2 -58 -9 -98 -15 -284 -42 -567 -240 -690 -485 -56
-110 -76 -197 -77 -321 0 -62 -2 -113 -3 -113 -2 0 -45 26 -95 57 -173 107
-347 176 -518 207 -111 20 -229 29 -262 21 l-26 -7 24 -48 c101 -199 359 -425
614 -536 l73 -32 -73 -37 c-86 -43 -118 -65 -179 -119 -122 -110 -196 -228
-246 -391 -26 -83 -28 -103 -28 -260 0 -159 2 -175 28 -255 85 -257 253 -452
494 -574 70 -36 231 -89 248 -82 25 10 15 43 -23 72 -223 168 -343 389 -343
633 0 386 317 691 695 668 113 -7 194 -34 290 -99 90 -60 144 -122 192 -224
37 -76 38 -83 38 -184 -1 -127 -18 -172 -96 -255 -73 -77 -142 -109 -239 -109
-65 0 -83 4 -129 29 -30 16 -72 51 -94 78 -63 75 -84 56 -86 -78 -1 -127 44
-240 135 -335 96 -101 223 -146 384 -137 276 16 494 187 591 464 12 35 23 97
26 155 l6 98 51 -43 c228 -193 594 -304 919 -281 103 8 102 3 29 128 -103 178
-261 350 -411 450 -81 54 -204 110 -280 128 -28 6 -51 14 -51 17 0 3 28 21 61
39 90 50 199 158 243 242 71 134 96 320 61 450 -33 125 -114 244 -210 310
-148 101 -358 97 -521 -8 -103 -67 -108 -93 -24 -111 67 -14 106 -35 153 -80
63 -59 82 -104 82 -196 0 -71 -4 -88 -33 -147 -74 -150 -223 -226 -422 -215
-154 8 -282 66 -386 174 -106 111 -154 227 -161 388 -9 193 45 333 182 471
217 219 532 280 873 168 121 -40 118 -39 126 -17 16 40 -203 209 -354 273 -41
17 -111 40 -155 51 -78 19 -254 32 -305 23z"/>
<path d="M7336 7935 c-193 -40 -364 -125 -488 -243 -40 -38 -45 -51 -27 -69 8
-8 34 -3 97 18 139 47 241 62 367 56 131 -8 229 -33 345 -90 121 -59 240 -178
297 -297 49 -101 63 -162 63 -277 0 -359 -303 -627 -659 -583 -105 13 -174 43
-239 104 -153 144 -157 367 -7 475 49 35 119 61 165 61 52 0 55 23 7 67 -79
73 -238 133 -352 133 -108 -1 -216 -50 -306 -139 -168 -168 -207 -438 -97
-670 39 -81 146 -191 236 -241 105 -59 104 -53 16 -84 -203 -72 -395 -205
-527 -366 -73 -89 -207 -307 -207 -336 0 -13 394 4 470 21 209 46 379 128 496
238 l72 68 6 -58 c39 -399 326 -683 692 -683 258 0 448 156 485 400 13 82 -1
190 -25 190 -6 0 -34 -23 -61 -51 -67 -68 -114 -91 -200 -97 -98 -6 -166 21
-249 99 -92 85 -121 153 -121 279 0 89 2 100 36 170 50 103 107 170 193 228
112 75 193 97 351 96 114 0 139 -3 203 -26 105 -38 176 -83 257 -163 81 -82
126 -153 169 -268 27 -75 30 -92 30 -212 0 -116 -3 -138 -27 -210 -54 -155
-151 -288 -287 -395 -122 -97 -106 -122 50 -79 94 26 221 85 308 143 75 49
194 166 248 242 192 269 193 666 2 959 -88 136 -184 224 -324 296 -44 23 -80
42 -82 44 -2 1 47 28 108 59 169 86 259 147 374 256 95 90 216 257 216 298 0
19 -166 15 -278 -7 -191 -37 -395 -119 -557 -225 l-85 -56 0 98 c0 246 -104
457 -302 615 -130 102 -264 168 -418 202 -104 23 -344 29 -434 10z"/>
<path d="M785 5103 c-46 -24 -66 -45 -86 -88 -40 -86 -13 -192 61 -241 56 -37
148 -44 200 -16 79 43 114 128 96 227 -8 43 -59 103 -103 121 -43 19 -131 17
-168 -3z"/>
<path d="M9281 5103 c-19 -10 -48 -35 -65 -56 -25 -31 -31 -49 -34 -101 -9
-132 79 -215 213 -204 168 14 226 240 89 345 -48 36 -150 44 -203 16z"/>
<path d="M1720 4865 c-109 -38 -159 -63 -247 -121 -154 -100 -260 -220 -332
-375 -67 -146 -76 -192 -76 -384 0 -166 1 -172 33 -265 69 -201 205 -369 375
-464 l88 -49 -110 -58 c-264 -139 -464 -316 -554 -490 -24 -48 -25 -54 -10
-62 21 -12 186 -2 292 18 177 34 354 108 504 211 43 30 80 54 83 54 2 0 4 -44
4 -97 0 -438 362 -804 841 -854 286 -29 610 88 803 291 87 91 71 109 -56 60
-132 -50 -230 -70 -349 -70 -128 0 -182 9 -287 50 -312 120 -498 423 -438 714
43 210 209 386 436 462 81 27 225 25 311 -4 159 -54 256 -172 267 -322 8 -118
-28 -193 -118 -248 -30 -18 -81 -40 -112 -49 -79 -22 -77 -39 8 -92 117 -72
316 -90 448 -43 125 46 230 160 276 302 32 96 34 261 6 355 -52 173 -169 311
-336 395 l-65 33 70 22 c276 85 559 333 708 623 l48 92 -154 0 c-167 0 -268
-14 -410 -55 -161 -46 -356 -151 -449 -240 -20 -19 -39 -35 -41 -35 -2 0 -7
33 -11 74 -31 339 -319 609 -651 610 -155 0 -267 -46 -364 -149 -90 -97 -131
-201 -131 -336 0 -160 18 -179 94 -97 28 30 74 68 101 84 44 26 60 29 130 29
67 0 89 -4 137 -28 72 -35 134 -97 167 -167 23 -48 26 -68 26 -161 0 -104 0
-106 -44 -193 -59 -120 -132 -192 -255 -251 -50 -24 -118 -49 -150 -54 -259
-47 -507 66 -655 298 -61 96 -93 203 -99 337 -6 137 16 235 84 374 42 84 59
107 156 203 71 70 108 113 106 124 -5 25 -24 25 -98 -2z"/>
<path d="M8433 4843 c-5 -12 16 -37 74 -92 155 -145 232 -270 274 -447 79
-331 -101 -670 -414 -782 -104 -37 -254 -42 -362 -13 -207 57 -358 190 -421
370 -51 144 -13 301 96 398 14 13 54 37 89 55 52 26 75 32 130 32 94 1 149
-27 234 -116 64 -69 68 -71 85 -55 13 14 18 39 20 106 5 111 -10 182 -55 272
-86 173 -263 268 -478 256 -165 -8 -305 -75 -441 -211 -117 -117 -167 -233
-168 -393 -1 -40 -2 -73 -4 -73 -2 0 -29 22 -60 49 -155 133 -340 222 -567
273 -91 20 -406 38 -440 24 -14 -5 -10 -19 30 -93 157 -297 421 -530 685 -606
l81 -24 -61 -37 c-151 -93 -280 -269 -325 -441 -18 -69 -20 -202 -4 -277 37
-179 172 -321 353 -373 77 -22 216 -16 298 13 69 24 143 72 143 92 0 8 -24 23
-55 35 -78 29 -110 48 -151 92 -44 46 -64 84 -74 140 -8 50 9 142 37 197 28
54 106 129 167 160 310 158 711 -38 817 -399 24 -82 22 -220 -5 -303 -52 -165
-190 -317 -365 -402 -125 -61 -212 -82 -341 -83 -121 -1 -221 20 -351 74 -109
45 -124 47 -124 17 0 -33 148 -171 255 -237 98 -62 229 -114 343 -137 57 -12
110 -15 207 -11 199 8 352 56 509 162 244 162 388 402 403 673 3 56 7 102 9
102 2 0 31 -18 65 -40 154 -99 394 -195 563 -225 115 -20 286 -21 286 -1 0 25
-97 162 -166 236 -109 116 -322 264 -496 346 -43 20 -47 30 -18 39 43 14 169
106 226 166 157 166 234 355 235 574 2 285 -92 502 -300 697 -97 90 -208 158
-334 203 -111 40 -125 42 -134 18z"/>
<path d="M5056 3931 c-180 -284 -250 -600 -188 -846 11 -44 19 -81 17 -83 -2
-2 -20 5 -42 16 -97 50 -181 67 -328 67 -132 0 -145 -2 -228 -31 -168 -60
-277 -149 -341 -277 -107 -214 -82 -404 71 -547 71 -67 196 -133 240 -128 32
4 33 9 2 93 -40 112 -13 223 72 299 69 63 119 81 229 81 88 0 101 -3 163 -33
194 -96 300 -334 256 -578 -35 -196 -202 -383 -406 -455 -93 -33 -256 -37
-363 -10 -301 78 -511 310 -583 644 -17 78 -27 103 -40 105 -22 4 -31 -20 -52
-148 -77 -458 190 -881 642 -1016 127 -38 343 -45 460 -16 82 21 200 72 262
113 l33 22 -7 -94 c-9 -121 8 -301 41 -425 37 -144 125 -324 158 -324 19 0 90
133 125 232 51 148 66 243 65 436 l0 172 20 -15 c47 -35 186 -96 261 -115 112
-29 290 -29 410 0 95 22 243 87 322 141 121 83 248 231 308 361 62 135 79 216
80 368 0 142 -23 277 -50 300 -19 16 -26 2 -57 -124 -75 -302 -258 -512 -524
-602 -114 -38 -260 -44 -373 -15 -311 78 -514 394 -447 695 25 112 75 204 147
270 69 64 111 88 188 106 168 40 341 -43 385 -184 21 -67 17 -165 -9 -215 -39
-77 -3 -91 105 -40 120 57 211 148 256 256 18 45 24 77 24 143 0 153 -46 266
-150 370 -211 213 -566 252 -807 90 -25 -17 -47 -29 -49 -27 -3 2 0 16 5 30
22 57 43 242 36 322 -18 215 -95 434 -223 632 -26 40 -50 73 -54 73 -3 0 -31
-40 -62 -89z"/>
<path d="M2951 1648 c-63 -31 -101 -94 -101 -168 0 -66 22 -112 74 -154 30
-25 48 -31 100 -34 90 -6 149 26 187 100 33 64 19 168 -29 221 -52 58 -154 73
-231 35z"/>
<path d="M7128 1656 c-109 -48 -150 -189 -84 -285 52 -75 167 -107 243 -67 96
49 136 171 88 266 -42 82 -163 124 -247 86z"/>
</g>
</svg>
